# xmcd
#
# Track frame offsets:
#	182
#	16450
#	30965
#	48092
#	65860
#	80625
#	94320
#	109095
#	127810
#	139257
#	151127
#	161932
#	176485
#	186802
#	201370
#	220515
#	233972
#	252280
#
# Disc length: 3552 seconds
#
# Revision: 1
# Processed by: cddbd v1.5.2PL0 Copyright (c) Steve Scherf et al.
# Submitted via: audiograbber 1.83.01
#
DISCID=f60dde12
DTITLE=Roto Noto - After The Lights Go Out
DYEAR=1992
DGENRE=Country
TTITLE0=Singing Songs Of Love -Canadian Country Chorus
TTITLE1=The Bottom Line -Jack Diamond
TTITLE2=Old School Of Love -Hallie Ross
TTITLE3=In My Arms -Mark Severin
TTITLE4=List Of Broken Hearts -Diane Raeside
TTITLE5=Old Tomcat Song -Lindsay Thomas Morgan
TTITLE6=Harbour For My Soul -Paula Manderson
TTITLE7=Standing On The Mountain -Lynne Wilson And The Rebels
TTITLE8=Are They Getting Younger -Larry Beaird
TTITLE9=Headed For A Heartbreak -Loma Lyns
TTITLE10=Don´t Want To Think -Jenny Lee West
TTITLE11=Home -Michael Terry 
TTITLE12=Steal Me A Heart -Moore And Moore
TTITLE13=All That Shines Is Gold -Jerry Kelly
TTITLE14=Leontine Loved Roses -Lorraine White
TTITLE15=Be Mine Tonight -Sammi Lee
TTITLE16=Faces On The Edge -Ross Tonkin
TTITLE17=Texas Heartache -Beverly´s Hillbilly Band
EXTD=
EXTT0=
EXTT1=
EXTT2=
EXTT3=
EXTT4=
EXTT5=
EXTT6=
EXTT7=
EXTT8=
EXTT9=
EXTT10=
EXTT11=
EXTT12=
EXTT13=
EXTT14=
EXTT15=
EXTT16=
EXTT17=
PLAYORDER=
